<svg xmlns="http://www.w3.org/2000/svg" xmlns:xlink="http://www.w3.org/1999/xlink" width="426.978" height="458" viewBox="0 0 426.978 458"><defs><style>.a{fill:#eb1442;}.b,.i{fill:#fff;}.c,.i{fill-rule:evenodd;}.c,.h{opacity:0.2;mix-blend-mode:multiply;isolation:isolate;}.d{fill:url(#a);}.e{fill:#f3f3f3;}.f{fill:#cdcdcd;}.g{fill:url(#b);}</style><linearGradient id="a" x1="6.875" y1="4.931" x2="5.969" y2="3.146" gradientUnits="objectBoundingBox"><stop offset="0" stop-color="#fab20e"/><stop offset="0.348" stop-color="#f91508"/><stop offset="1" stop-color="#6f0301"/></linearGradient><linearGradient id="b" x1="6.447" y1="2.474" x2="6.978" y2="4.405" xlink:href="#a"/></defs><g transform="translate(-74.596 -17.176)"><path class="a" d="M356.468,27.2l-218.7,33.61C103.9,63.086,81.4,91.687,87.8,124.363L137.818,380.3c6.394,32.676,35.847,46.051,65.445,29.7l93.626-36.443-19.856,61.171c-.855,2.5.871,2.073,3.6-1.45l65.325-76.433,42.11-21.325c19.834-9.887,28.607-19.87,29.077-45.54l-.191-206.393C417.577,50.306,390.349,24.939,356.468,27.2Z" transform="translate(20.982 17.116)"/><g transform="translate(166.142 65.721)"><path class="b" d="M112.54,79.162c1.322-18.236,12.124-30.221,30.5-33.083s27.667,5.992,26.343,24.229l-4.3,59.27a37.908,37.908,0,0,1-4.733,16.513c.7,1.986,2.035,2.1,5.1,1.62l1.7-.265L166,163.4l-2.554.4c-8.341,1.3-13.4-.811-15.6-5.3a46.274,46.274,0,0,1-13.26,4.16c-18.381,2.865-27.67-6-26.345-24.231Zm14.339,57.492c-.593,8.145,2.928,10.654,8.887,9.726s9.925-4.6,10.515-12.747l4.468-61.551c.59-8.139-2.931-10.649-8.887-9.723s-9.928,4.608-10.518,12.747Z" transform="translate(-108.114 -16.601)"/><path class="b" d="M158.812,46.456l-6.383,87.929c-.59,8.139,2.942,10.488,8.9,9.559s9.914-4.444,10.5-12.583l6.383-87.926,17.7-2.759-6.3,86.787C188.293,145.7,178,157.606,159.623,160.471s-27.156-6.074-25.835-24.311l6.3-86.787Z" transform="translate(-63.892 -25.035)"/><path class="b" d="M166.991,41.7l18.725-2.917-8.27,113.979-18.725,2.917Z" transform="translate(-20.503 -28.313)"/><path class="b" d="M233.2,34.95l-1.158,15.956-41.5,87.282,35.571-5.542-1.183,16.284-54.807,8.538,1.161-15.959,41.5-87.282L178.919,59.5l1.18-16.281Z" transform="translate(-0.762 -34.95)"/></g><g transform="translate(167.919 194.479)"><g transform="translate(0 0)"><path class="b" d="M109.191,103.052l50.377-8.745-.426,15.773-17.04,2.958-2.551,94.623-16.3,2.832,2.554-94.629-17.04,2.958Z" transform="translate(-108.765 -60.948)"/><path class="b" d="M132.4,95.553l16.3-2.827-2.98,110.4-16.3,2.83Z" transform="translate(-73.005 -63.685)"/><path class="b" d="M175.752,171.783l13.225-80.312,22.669-3.936-2.977,110.4-15.407,2.674,2.136-79.167L182,202.561l-15.41,2.677L156.549,129.28l-2.106,78.066-14.227,2.469,2.98-110.4,22.666-3.936Z" transform="translate(-54.316 -72.67)"/><path class="b" d="M188.182,135.273l22.374-3.881-.423,15.77-22.377,3.884-.871,32.332,28.153-4.889-.426,15.77-44.451,7.716,2.977-110.393,44.451-7.718-.423,15.773-28.156,4.886Z" transform="translate(-2.475 -79.029)"/><path class="b" d="M206.933,175.823l-.451,16.715-15.707,2.728.451-16.718Zm-13.719-5.31-1-39.54,1.24-46.051,16.3-2.83-1.245,46.051L205.362,168.4Z" transform="translate(33.212 -82.093)"/></g></g><g transform="translate(116.187 29.806)"><g transform="translate(0 13.682)"><path class="b" d="M262.964,26.833,144.391,42.726c-16.991.773-32.095,8.2-42.309,20.9S87.839,92.658,90.745,109.64l12.072,70.654h0a2.595,2.595,0,0,0,5.116-.871h0L95.866,108.766c-2.652-15.491.991-30.371,10.267-41.889S129.156,48.614,144.864,47.9c.221-.025,118.794-15.92,118.794-15.92h0a2.595,2.595,0,0,0-.694-5.143Z" transform="translate(-89.824 -26.81)"/></g><g transform="translate(189.397)"><path class="b" d="M304.12,229.769l2.8-146.221a59.037,59.037,0,0,0-17.259-44.74C277.857,27.1,261.89,21.084,244.681,21.868c-.227.027-83.267,11.154-83.267,11.154h0a2.6,2.6,0,0,0,.694,5.146h0l83.04-11.132a53.939,53.939,0,0,1,40.864,15.456c10.739,10.668,16.319,25.193,15.724,40.914-.005.049-2.808,146.273-2.808,146.273h0a2.6,2.6,0,0,0,5.192.09Z" transform="translate(-159.169 -21.8)"/></g><g transform="translate(328.713 221.337)"><path class="b" d="M215.37,112.424l.131-6.937h0a2.594,2.594,0,1,0-5.187-.1h0l-.137,6.94h0a2.6,2.6,0,0,0,5.192.1Z" transform="translate(-210.178 -102.84)"/></g><g transform="translate(17.881 192.955)"><path class="b" d="M96.407,95.479l27.927,163.5c2.922,17.089,11.752,30.035,24.851,36.443s28.716,5.43,43.989-2.739a2.308,2.308,0,0,1-.314.142l94.678-35.2a2.593,2.593,0,0,1-3.354-3.277l-21.189,62.157c-1.093,3.04-2.447,7.664-2.447,7.664l77.6-83.275a2.5,2.5,0,0,1-.811.617l42.7-20.872c19.632-9.434,30.491-19.913,31.559-48.171.005-.055.538-28.227.538-28.227h0a2.6,2.6,0,1,0-5.189-.1h0l-.541,28.167c-.983,25.881-10.01,34.714-28.634,43.661-.014.005-42.708,20.886-42.708,20.886a2.591,2.591,0,0,0-.828.625l-67.09,76.747a10.66,10.66,0,0,1-2.2,2.278c.27-.145,24.16-60.475,24.16-60.475a2.63,2.63,0,0,0-.658-2.7,2.6,2.6,0,0,0-2.709-.576l-94.68,35.2c-.107.041-.213.1-.325.142-13.765,7.374-27.711,8.311-39.267,2.66s-19.375-17.256-22.008-32.652l-27.927-163.5h0a2.595,2.595,0,0,0-5.116.874Z" transform="translate(-96.371 -92.448)"/></g><g transform="translate(14.722 174.509)"><path class="b" d="M95.249,88.731l1.338,7.792h0a2.6,2.6,0,0,0,5.121-.877h0l-1.33-7.789h0a2.6,2.6,0,0,0-5.129.874Z" transform="translate(-95.214 -85.694)"/></g></g><path class="c" d="M175.924,186.008l0,0c-7.568-9.344-18.406-20.115-24.39-20.186a4.775,4.775,0,0,0-3.256,1.235,5.647,5.647,0,0,0-1.633,3.261c-.8,4.416-6.377,35.509-26.87,53.032l-.535-.669-17.663,16.188c-3.037,2.783-3.638,7.339-1.352,10.182l2.13,2.649-2.07,1.885a1.544,1.544,0,0,0-.273,2.04l1.412,1.77a1.325,1.325,0,0,0,1.928.019l2.068-1.906,1.871,2.327c2.291,2.838,6.612,2.881,9.647.1l.391-.361c.863,1.349,2.95,4.589,4.651,7.06,2.2,3.2,4.684-2.3,7.707-.281,4.8,2.78,14.038,5.919,15.56,6.541,1.5.62,3.616,4.747,4.73,2.674,1.1-2.065,2.453-9.83,2.657-11.761s-2.141-.961-3.119-.519c-.981.464-4.613-1.767-7.992-3.387s-2.862-3.889-2.8-5.654c.041-1.753-1.1-1.308-1.666-.929-.554.4-2.873,2.062-2.873,2.062s-2.341-.393-1.529-3.144c.582-1.983-.871-4.11-1.721-5.137l3.657-3.351-.451-.56c.2-.191.41-.358.615-.544,1.21-1.106,2.42-2.177,3.63-3.168.158-.126.314-.24.47-.363,1.284-1.035,2.565-2.029,3.843-2.944.1-.068.188-.123.284-.194,1.336-.945,2.666-1.844,3.988-2.668.055-.036.109-.066.167-.1q2.036-1.27,4.037-2.36a.692.692,0,0,1,.079-.038q2.04-1.11,4.031-2.04l.066-.03q2-.934,3.925-1.7l.1-.038c1.27-.511,2.521-.97,3.742-1.387.076-.025.147-.041.224-.068,1.172-.4,2.324-.754,3.441-1.071.145-.038.273-.068.415-.109,1.041-.287,2.065-.554,3.051-.781.243-.055.464-.093.7-.147.863-.188,1.718-.371,2.529-.522.388-.068.737-.117,1.112-.18.631-.1,1.273-.218,1.868-.3s1.125-.137,1.674-.2c.336-.041.7-.09,1.021-.12.814-.079,1.573-.139,2.289-.183l.1-.008c2.24-.137,3.966-.117,5.042-.09a4.582,4.582,0,0,0,3.275-1.221,5.307,5.307,0,0,0,1.614-3.261c.852-6.391-7.71-19.635-15.3-29.052C176.083,186.2,176.015,186.1,175.924,186.008Zm-9.158-18.875,13.454-19.826-5.856.658,4.6-14.672-12.7,19.225,5.681-.615Zm13.285,16.729,20.509-12.386-5.594-1.849,10.316-11.4-19.569,12.151,5.413,1.824Zm48.963,12.2-23-1.215,3.4,4.591-15.756,3.236,23.906,1.562-3.526-4.711Z" transform="translate(41.965 201.024)"/><g transform="translate(136.932 329.54)"><g transform="translate(0 32.532)"><path class="d" d="M117.493,172.251s3.084,3.034,2.281,5.771,1.529,3.144,1.529,3.144,2.319-1.666,2.873-2.062c.568-.38,1.71-.825,1.669.929-.06,1.764-.587,4.042,2.8,5.654s7.008,3.851,7.989,3.387c.981-.442,3.332-1.42,3.122.519s-1.562,9.7-2.66,11.761-3.231-2.054-4.73-2.674c-1.519-.623-10.764-3.761-15.557-6.541-3.026-2.021-5.506,3.482-7.707.281s-5.064-7.7-5.064-7.7Z" transform="translate(-85.96 -93.603)"/><path class="e" d="M104.876,178.217l-3.515,3.237a1.322,1.322,0,0,1-1.926-.019l-1.412-1.77a1.546,1.546,0,0,1,.27-2.04l3.534-3.212Z" transform="translate(-96.848 -89.862)"/><path class="b" d="M119.274,219.263,104.9,201.42c20.91-17.439,26.564-49.017,27.372-53.469a5.63,5.63,0,0,1,1.631-3.261,4.783,4.783,0,0,1,3.258-1.234c6.044.071,17.054,11.072,24.633,20.481s16.155,22.661,15.3,29.052a5.307,5.307,0,0,1-1.614,3.261,4.582,4.582,0,0,1-3.275,1.221C166.466,197.312,142.292,197.528,119.274,219.263Z" transform="translate(-84.466 -143.455)"/><path class="f" d="M140.8,164.111c10.619,13.17,16.966,25.93,14.189,28.487-2.8,2.556-13.672-6.047-24.289-19.214-10.633-13.178-16.988-25.922-14.189-28.481S130.174,150.933,140.8,164.111Z" transform="translate(-65.519 -141.731)"/><path class="b" d="M119.591,153.878c1.647,2.354,3.422,4.75,5.307,7.079,1.909,2.376,3.887,4.627,5.88,6.773a9.949,9.949,0,0,0,1.57-12.088,8.52,8.52,0,0,0-5.334-4.146,7.125,7.125,0,0,0-7.423,2.382Z" transform="translate(-59.036 -129.931)"/><path class="g" d="M133.172,183.345,115.518,199.53c-3.034,2.778-7.352,2.734-9.644-.1l-7.068-8.784c-2.283-2.843-1.685-7.4,1.352-10.182l17.663-16.188Z" transform="translate(-97.42 -107.414)"/><path class="h" d="M188.865,180.195c.855-6.391-7.708-19.635-15.3-29.052-.085-.1-.153-.2-.24-.3L98.1,221.332l.718.9a1.322,1.322,0,0,0,1.926.019l2.076-1.92,1.865,2.341c2.291,2.838,6.61,2.881,9.644.1l17.655-16.185-.459-.56c22.882-21.293,46.742-21.517,52.448-21.355a4.582,4.582,0,0,0,3.275-1.221A5.307,5.307,0,0,0,188.865,180.195Z" transform="translate(-96.235 -130.661)"/></g><path class="i" d="M134.807,131.544l-4.6,14.672,5.856-.659-13.453,19.825,5.184-15.227-5.681.613Z" transform="translate(-54.676 -131.544)"/><path class="i" d="M152.387,140.672l-10.317,11.4,5.592,1.851-20.507,12.384,11.075-11.661-5.416-1.824Z" transform="translate(-45.94 -115.741)"/><path class="i" d="M167.5,155.3l-14.979,3.462,3.526,4.71-23.907-1.56,15.758-3.238-3.4-4.59Z" transform="translate(-37.317 -92.529)"/></g><g transform="translate(100.973 290.161)"><path class="b" d="M135.118,117.225l-24.2,5.424-23.475,5.26h0a4.1,4.1,0,0,0,1.8,7.992h0l23.461-5.255,24.2-5.424h0a4.1,4.1,0,0,0-1.792-8Z" transform="translate(-84.254 -117.126)"/></g><g transform="translate(398.438 94.447)"><g transform="translate(0 6.353)"><path class="b" d="M262.958,47.893l-18.3,4.1-48.3,10.827h0a4.1,4.1,0,0,0,1.808,7.992h0L246.446,59.99l18.3-4.1h0a4.1,4.1,0,0,0-1.792-8Z" transform="translate(-193.167 -47.793)"/></g><g transform="translate(85.889)"><path class="b" d="M236.867,45.567l-5.678,1.273-3.373.757h0a4.1,4.1,0,1,0,1.792,8h0l3.376-.757,5.675-1.273h0a4.1,4.1,0,0,0-1.792-8Z" transform="translate(-224.614 -45.467)"/></g></g><g transform="translate(333.808 376.235)"><path class="b" d="M238.81,148.74,172.7,163.554h0a4.1,4.1,0,1,0,1.8,7.994h0l66.1-14.814h0a4.1,4.1,0,1,0-1.792-7.994Z" transform="translate(-169.503 -148.64)"/></g><path class="b" d="M118.83,53.172h-7.964V45.213h-3.537v7.959h-7.98v3.545h7.98v7.972h3.537V56.717h7.964Z" transform="translate(42.852 48.539)"/><g transform="translate(301.699 17.176)"><path class="b" d="M175.263,17.275l-14.312,3.209h0a4.1,4.1,0,1,0,1.792,8h0l14.312-3.209h0a4.1,4.1,0,1,0-1.792-8Z" transform="translate(-157.747 -17.176)"/></g><g transform="translate(74.596 216.613)"><path class="b" d="M74.6,100.491A10.293,10.293,0,1,0,84.882,90.2,10.3,10.3,0,0,0,74.6,100.491Zm3.231,0a7.06,7.06,0,1,1,7.055,7.06A7.07,7.07,0,0,1,77.827,100.491Z" transform="translate(-74.596 -90.197)"/></g></g></svg>