<svg xmlns="http://www.w3.org/2000/svg" width="52.53" height="10.587" viewBox="0 0 52.53 10.587"><defs><style>.a{fill:#010101;}.b{fill:#636464;}.c{fill:#f26822;}.d{fill:#166835;}</style></defs><g transform="translate(0 0)"><path class="a" d="M2350.724,634.92a3.282,3.282,0,0,0-1.036,2.569c0,.054,0,.117,0,.185a6.675,6.675,0,0,1-.023.718,4.08,4.08,0,0,0-3.123-1.453,4.187,4.187,0,1,0,4.187,4.187v-6.2Zm-4.187,9.05a2.845,2.845,0,1,1,2.844-2.845,2.845,2.845,0,0,1-2.844,2.845" transform="translate(-2331.052 -634.726)"/><path class="a" d="M2822.584,724.855v-4.187a2.545,2.545,0,0,0,0,4.188Zm-1.343-4.187a2.843,2.843,0,1,1-2.845-2.844,2.844,2.844,0,0,1,2.845,2.844" transform="translate(-2791.244 -714.27)"/><path class="a" d="M1985.336,716.483a2.128,2.128,0,0,1-4.186,0h0v8.374h1.342V720.67a2.844,2.844,0,1,1,5.687,0l0,4.187h1.342l0-4.187a4.186,4.186,0,0,0-4.185-4.187" transform="translate(-1978.784 -714.271)"/><path class="a" d="M3186.676,976.8a.98.98,0,1,1-.98-.981.98.98,0,0,1,.98.981" transform="translate(-3152.584 -967.192)"/><path class="b" d="M3504.1,833.316a2.746,2.746,0,1,0,2.614,2.743,2.684,2.684,0,0,0-2.614-2.743m0,4.524a1.791,1.791,0,1,1,1.662-1.782,1.723,1.723,0,0,1-1.662,1.782" transform="translate(-3461.522 -828.215)"/><path class="b" d="M3281.84,837.252a1.612,1.612,0,0,1-1.231.589,1.792,1.792,0,0,1,0-3.573,1.618,1.618,0,0,1,1.309.692H3283a2.618,2.618,0,0,0-2.395-1.644,2.746,2.746,0,0,0,0,5.486,2.609,2.609,0,0,0,2.353-1.55Z" transform="translate(-3243.557 -828.215)"/><path class="b" d="M3743.419,835.321l-.022-.021a2.036,2.036,0,0,0-1.256-.495H3742a2,2,0,0,0-1.241.5l-.014.013c-.037.038-.074.077-.107.117-.011.012-.01.009-.02.02a.116.116,0,0,1-.022-.02c-.033-.04-.068-.08-.106-.117l-.013-.013a2,2,0,0,0-1.242-.5h-.143a2.039,2.039,0,0,0-1.256.495l-.021.021a2.209,2.209,0,0,0-.562,1.485V840h.96v-3.207a1.262,1.262,0,0,1,.29-.8,1,1,0,0,1,1.318,0,1.3,1.3,0,0,1,.322.807V840h.952v-3.2a1.307,1.307,0,0,1,.323-.807,1,1,0,0,1,1.317,0,1.259,1.259,0,0,1,.29.8V840h.961v-3.2a2.214,2.214,0,0,0-.562-1.485" transform="translate(-3691.451 -829.667)"/><path class="c" d="M1886.524,628.934a2.7,2.7,0,0,1,.34-.267v-1.6h0a4.454,4.454,0,0,0-1.363,3.214v.241a5.345,5.345,0,0,1,1.024-1.588" transform="translate(-1885.5 -627.067)"/><path class="a" d="M1886.842,722.116a4.178,4.178,0,0,0-1.342,3.072v5.164h1.343v-8.235" transform="translate(-1885.5 -719.765)"/><path class="d" d="M2725.483,628.934a2.656,2.656,0,0,0-.34-.267v-1.6h0a4.45,4.45,0,0,1,1.363,3.214v.241a5.342,5.342,0,0,0-1.023-1.588" transform="translate(-2704.376 -627.067)"/><path class="a" d="M2726,722.117v8.235h1.343v-5.164a4.177,4.177,0,0,0-1.341-3.072" transform="translate(-2705.209 -719.765)"/></g></svg>